<?xml version="1.0" encoding="utf-8"?>
<svg version="1.1" id="레이어_1" xmlns="http://www.w3.org/2000/svg" xmlns:xlink="http://www.w3.org/1999/xlink" x="0px"
	 y="0px" viewBox="0 0 841.9 841.9" style="enable-background:new 0 0 841.9 841.9;" xml:space="preserve" role="img" aria-label="d·mauve">
<style type="text/css">
	.st0{fill:#695AC6;}
	.st1{fill:#FFFFFF;}
</style>
<circle class="st0" cx="420.9" cy="420.9" r="420.9"/>
<path class="st1" d="M150,383.3c-4.2-4.7-15.2-9.9-23.9-9.9c-25.3,0-45.9,20.6-45.9,45.9v16.3c0,25.3,20.6,45.9,45.9,45.9
	c25.3,0,45.9-20.6,45.9-45.9v-3h0.1v-118h-22V383.3z M149.9,435.9c0,13.1-10.7,23.5-23.8,23.5c-13.1,0-23.8-10.7-23.8-23.8v-16.3
	c0-13.1,10.7-23.8,23.8-23.8c13.1,0,23.8,8.7,23.8,21.9V435.9z"/>
<path class="st1" d="M542.9,480.6c0,13.1-10.7,23.8-23.8,23.8c-13.1,0-23.8-10.7-23.8-23.8v-54.7h-22v54.7
	c0,25.3,20.6,45.9,45.9,45.9c25.3,0,45.9-20.6,45.9-45.9v-54.7h-22V480.6z"/>
<path class="st0" d="M420.8,403.2c-13,0-23.7,10.6-23.8,23.6c0.1,13,10.8,23.6,23.8,23.6c13,0,23.7-10.6,23.8-23.6
	C444.5,413.8,433.8,403.2,420.8,403.2z"/>
<path class="st1" d="M189.3,416c-5.9,0-10.7,4.8-10.7,10.7c0,5.9,4.8,10.7,10.7,10.7c5.9,0,10.7-4.8,10.7-10.7
	C200,420.8,195.2,416,189.3,416z"/>
<path class="st1" d="M715.8,473.2c12.2,0,23.7-4.7,32.3-13.4c8.6-8.6,13.4-20,13.5-32.1v-0.4c-0.1-12.1-4.9-23.5-13.5-32.1
	c-8.7-8.6-20.1-13.3-32.3-13.3c-12.2,0-23.7,4.7-32.4,13.3c-8.6,8.6-13.4,20-13.5,32.1v0.4c0,0.3,0,0.6,0,0.9h0v43.4
	c0,30.3,22.1,45.6,45.9,45.6c23.8,0,39.3-14.6,44.4-34.4H737c-4.1,7.4-8.4,13.2-21.2,13.2c-12.3,0-23.8-8.3-23.8-19.3V464
	C696.9,469,704.1,473.2,715.8,473.2z M692,431.3v-7.4c1.7-11.4,11.4-19.9,23.8-19.9c13,0,23.7,10.6,23.8,23.6
	c-0.1,13-10.8,23.6-23.8,23.6C703.2,451.2,693.7,442.5,692,431.3z"/>
<path class="st1" d="M322.5,381.6c-14,0-28.3,8-35,18.2c-6.1-11-21-18.2-35-18.2c-25.3,0-45.9,20.6-45.9,45.9v43.6h22.1v-43.6
	c0-13.1,10.7-24.7,23.8-24.7c13.1,0,23.8,11.5,23.8,24.7v43.6h0.3h21.8h0.3v-43.6c0-13.1,10.7-24.7,23.8-24.7
	c13.1,0,23.8,11.5,23.8,24.7v43.6h22v-43.6C368.3,402.2,347.8,381.6,322.5,381.6z"/>
<path class="st1" d="M466.6,378.6c-0.2-25.1-20.7-43.2-45.8-43.2c-21.8,0-40,15.2-44.7,35.6h23.2c1.8-7.3,9.6-13.5,21.2-13.5
	c13.1,0,24.1,8.4,24.1,21.6v12.2c-7.6-7.6-16.2-10-23.8-10c-12.2,0-23.7,4.7-32.4,13.3c-8.6,8.6-13.4,20-13.5,32.1v0.4
	c0.1,12.1,4.9,23.5,13.5,32.1c8.6,8.6,20.1,13.4,32.4,13.4c12.2,0,23.7-4.7,32.3-13.4c8.6-8.6,13.4-20,13.5-32.1v-0.4
	c0-0.3,0-0.6,0-0.9h0V378.6z M420.8,450.5c-13,0-23.7-10.6-23.8-23.6c0.1-13,10.8-23.6,23.8-23.6c11.6,0,21.3,8.4,23.4,19.3v8.5
	C442,442.1,432.3,450.5,420.8,450.5z"/>
<g>
	<path class="st1" d="M585.2,407.7v1.9h-14V392h12.3v1.9h-10v13.8H585.2z M591.3,390.4v23.7H589v-23.7H591.3z"/>
	<path class="st1" d="M600.7,401.4c0-0.5,0.2-0.9,0.5-1.2c0.3-0.3,0.7-0.5,1.2-0.5c0.5,0,0.9,0.2,1.2,0.5c0.3,0.3,0.5,0.7,0.5,1.2
		s-0.2,0.9-0.5,1.2c-0.3,0.3-0.7,0.5-1.2,0.5c-0.5,0-0.9-0.2-1.2-0.5C600.9,402.3,600.7,401.9,600.7,401.4z"/>
	<path class="st1" d="M611.8,410.1h10.7v-6.7h-8.3v-11.9h18.9v11.9h-8.4v6.7h10.9v1.9h-23.8V410.1z M630.9,401.5v-8.1h-14.5v8.1
		H630.9z"/>
	<path class="st1" d="M638.8,410H663v1.9h-24.2V410z M657.9,391.1h2.2v13.8h-18.5v-13.8h2.2v4.8h14V391.1z M657.9,402.9v-5.1h-14
		v5.1H657.9z"/>
</g>
<g>
	<path class="st1" d="M640.2,425.9l-22.2,69.6c0,2.8-0.2,7.4-0.5,7.4s-0.5-4.6-0.5-7.4l-22.2-69.6h-23.2l35.5,93.9
		c1.5,4.5,5.7,7.6,10.5,7.6c4.8,0,9-3.1,10.5-7.6l35.5-93.9H640.2z"/>
</g>
</svg>
